HIERARCHY
ROOT Hips
{
	OFFSET -0.001795 -0.223333 0.028219
	CHANNELS 6 Xposition Yposition Zposition Zrotation Yrotation Xrotation 
	JOINT LeftUpLeg
	{
		OFFSET 0.069520 -0.091406 -0.006815
		CHANNELS 3 Zrotation Yrotation Xrotation
		JOINT LeftLeg
		{
			OFFSET 0.034277 -0.375199 -0.004496
			CHANNELS 3 Zrotation Yrotation Xrotation
			JOINT LeftFoot
			{
				OFFSET -0.013596 -0.397961 -0.043693
				CHANNELS 3 Zrotation Yrotation Xrotation
				JOINT LeftToe
				{
					OFFSET 0.026358 -0.055791 0.119288
					CHANNELS 3 Zrotation Yrotation Xrotation
					End Site
					{
						OFFSET 0.000000 0.000000 0.000000
					}
				}
			}
		}
	}
	JOINT RightUpLeg
	{
		OFFSET -0.067670 -0.090522 -0.004320
		CHANNELS 3 Zrotation Yrotation Xrotation
		JOINT RightLeg
		{
			OFFSET -0.038290 -0.382569 -0.008850
			CHANNELS 3 Zrotation Yrotation Xrotation
			JOINT RightFoot
			{
				OFFSET 0.015774 -0.398415 -0.042312
				CHANNELS 3 Zrotation Yrotation Xrotation
				JOINT RightToe
				{
					OFFSET -0.025372 -0.048144 0.123348
					CHANNELS 3 Zrotation Yrotation Xrotation
					End Site
					{
						OFFSET 0.000000 0.000000 0.000000
					}
				}
			}
		}
	}
	JOINT Spine
	{
		OFFSET -0.002533 0.108963 -0.026696
		CHANNELS 3 Zrotation Yrotation Xrotation
		JOINT Spine1
		{
			OFFSET 0.005487 0.135180 0.001092
			CHANNELS 3 Zrotation Yrotation Xrotation
			JOINT Spine2
			{
				OFFSET 0.001457 0.052922 0.025425
				CHANNELS 3 Zrotation Yrotation Xrotation
				JOINT Neck
				{
					OFFSET -0.002778 0.213870 -0.042857
					CHANNELS 3 Zrotation Yrotation Xrotation
					JOINT Head
					{
						OFFSET 0.005152 0.064970 0.051349
						CHANNELS 3 Zrotation Yrotation Xrotation
						End Site
						{
							OFFSET 0.000000 0.000000 0.000000
						}
					}
				}
				JOINT LeftShoulder
				{
					OFFSET 0.078845 0.121749 -0.034090
					CHANNELS 3 Zrotation Yrotation Xrotation
					JOINT LeftArm
					{
						OFFSET 0.090977 0.030469 -0.008868
						CHANNELS 3 Zrotation Yrotation Xrotation
						JOINT LeftForeArm
						{
							OFFSET 0.259612 -0.012772 -0.027456
							CHANNELS 3 Zrotation Yrotation Xrotation
							JOINT LeftHand
							{
								OFFSET 0.249234 0.008986 -0.001171
								CHANNELS 3 Zrotation Yrotation Xrotation
								End Site
								{
									OFFSET 0.000000 0.000000 0.000000
								}
							}
						}
					}
				}
				JOINT RightShoulder
				{
					OFFSET -0.081759 0.118833 -0.038615
					CHANNELS 3 Zrotation Yrotation Xrotation
					JOINT RightArm
					{
						OFFSET -0.096012 0.032551 -0.009143
						CHANNELS 3 Zrotation Yrotation Xrotation
						JOINT RightForeArm
						{
							OFFSET -0.253742 -0.013329 -0.021401
							CHANNELS 3 Zrotation Yrotation Xrotation
							JOINT RightHand
							{
								OFFSET -0.255298 0.007772 -0.005559
								CHANNELS 3 Zrotation Yrotation Xrotation
								End Site
								{
									OFFSET 0.000000 0.000000 0.000000
								}
							}
						}
					}
				}
			}
		}
	}
}
MOTION
Frames: 18
Frame Time: 0.050000
0.000000 0.959099 0.000000 -0.349371 -4.601806 -0.090705 4.102126 0.183363 3.186310 -1.345126 0.211964 -2.411559 15.051143 24.649942 37.927901 0.000000 0.000000 0.000000 -3.133022 0.017158 1.263318 2.038459 -0.214473 -0.853215 -9.009132 -21.735223 28.285023 0.000000 0.000000 0.000000 6.439916 -0.353226 3.239450 -6.538641 2.080683 -25.547144 -1.334581 5.958308 29.115457 7.869988 -4.049406 -16.741457 0.000000 0.000000 0.000000 -6.321727 -0.974189 -0.071157 -52.485425 -2.351012 -7.855981 -17.320236 -30.796397 6.272279 0.000000 0.000000 0.000000 15.086701 -10.405850 -5.576868 53.229663 0.750296 -7.383276 21.660679 30.820417 7.681804 0.000000 0.000000 0.000000 
-0.000088 0.957864 0.001098 -0.614044 -4.746920 0.329439 4.431880 0.193661 3.562804 -1.444221 0.249540 -3.652612 15.241287 24.837488 37.715447 0.000000 0.000000 0.000000 -3.221723 0.053640 0.837346 2.261742 -0.227032 -0.567965 -7.906200 -20.372803 27.479013 0.000000 0.000000 0.000000 6.752032 -0.318221 2.696847 -7.258531 2.223662 -26.127165 -0.851630 5.429051 29.452882 6.821356 -3.630827 -15.254109 0.000000 0.000000 0.000000 -6.537511 -0.649552 -0.154722 -52.622170 -2.371256 -7.899690 -16.441061 -30.922223 6.136442 0.000000 0.000000 0.000000 15.077135 -10.105725 -5.517512 53.895975 -0.534513 -8.057742 21.265381 31.785931 7.801219 0.000000 0.000000 0.000000 
-0.000233 0.956963 0.001805 -0.290286 -3.894025 0.390505 4.423479 0.124315 2.562463 -1.889648 0.259519 -2.213738 14.910061 24.646174 37.062563 0.000000 0.000000 0.000000 -3.420558 0.053802 0.870511 2.083229 -0.213016 -0.478408 -8.367816 -20.845705 27.426983 0.000000 0.000000 0.000000 6.833384 -0.237492 1.830373 -7.264370 2.230776 -26.253772 -1.017550 5.621849 30.296180 7.190662 -3.751618 -15.666952 0.000000 0.000000 0.000000 -6.821953 -1.572660 0.157099 -52.150261 -2.334798 -7.957876 -17.179687 -30.628771 6.215420 0.000000 0.000000 0.000000 15.042356 -10.656663 -5.662134 54.790959 -0.637175 -8.281716 19.608649 31.229773 7.284303 0.000000 0.000000 0.000000 
-0.000495 0.956799 0.002457 -0.302245 -3.647627 0.506021 4.326690 0.126687 2.632778 -1.631078 0.239815 -2.547895 14.787179 24.562971 36.918672 0.000000 0.000000 0.000000 -3.458701 0.056478 0.835677 2.575157 -0.257960 -0.388513 -9.063106 -21.694748 27.024790 0.000000 0.000000 0.000000 6.905844 -0.184367 1.259990 -7.512801 2.266386 -26.909322 -0.962065 5.273356 31.159206 6.544833 -3.584568 -14.043068 0.000000 0.000000 0.000000 -6.350670 -1.105541 0.022797 -52.727901 -2.328988 -8.121254 -16.750462 -30.977825 6.221381 0.000000 0.000000 0.000000 14.553273 -11.192878 -5.900061 55.157598 -0.234664 -8.217181 19.617202 30.187782 7.017439 0.000000 0.000000 0.000000 
-0.000791 0.956909 0.003049 -0.311617 -3.301423 0.456386 4.227440 0.115684 2.457023 -1.347902 0.203785 -2.172266 14.608853 24.436957 36.776266 0.000000 0.000000 0.000000 -3.525102 0.054465 0.855926 2.530272 -0.256682 -0.433932 -8.997416 -21.558906 28.064011 0.000000 0.000000 0.000000 6.632303 -0.159601 1.057863 -6.852838 2.132982 -26.639346 -1.229269 5.312415 30.547211 6.498387 -3.673013 -12.906725 0.000000 0.000000 0.000000 -6.402796 -1.297891 0.066476 -52.760032 -2.311879 -8.080298 -16.925734 -30.525736 6.134659 0.000000 0.000000 0.000000 14.148590 -11.327830 -5.883547 55.109152 -0.482775 -8.228800 19.286752 30.279380 6.957263 0.000000 0.000000 0.000000 
-0.001015 0.956992 0.003468 -0.418632 -2.598026 0.542274 4.450914 0.092524 2.315996 -1.385535 0.206816 -2.228380 14.219623 24.157431 36.396847 0.000000 0.000000 0.000000 -3.449235 0.044147 0.883352 2.467940 -0.257203 -0.570163 -8.964558 -21.414882 28.967195 0.000000 0.000000 0.000000 6.490622 -0.146496 0.911385 -6.831412 2.121425 -26.996645 -1.094740 4.616501 30.737190 6.076119 -3.404863 -12.812244 0.000000 0.000000 0.000000 -6.439798 -0.661569 -0.178770 -52.842353 -2.607655 -7.970860 -16.453649 -30.187675 5.957096 0.000000 0.000000 0.000000 13.689066 -11.638480 -6.017847 54.943434 -0.566705 -8.233796 19.673779 30.424696 7.083103 0.000000 0.000000 0.000000 
-0.001116 0.956964 0.003725 -0.455808 -2.241534 0.607777 4.500283 0.094789 2.473325 -1.327248 0.210998 -2.698658 14.006306 24.000691 36.206636 0.000000 0.000000 0.000000 -3.243027 0.025294 1.004128 2.271887 -0.245307 -0.808563 -9.231492 -21.695657 29.167208 0.000000 0.000000 0.000000 6.410807 -0.127465 0.703823 -6.583551 2.080288 -26.704582 -1.330878 4.322993 30.357101 6.489518 -3.697996 -13.037828 0.000000 0.000000 0.000000 -6.439834 -0.752798 -0.140406 -53.083189 -2.339299 -8.082057 -16.215974 -29.938589 5.839911 0.000000 0.000000 0.000000 13.527055 -11.750806 -6.070595 54.778733 -0.821435 -8.277697 20.016040 31.184084 7.373585 0.000000 0.000000 0.000000 
-0.001114 0.956610 0.003905 -0.574053 -1.905735 0.587133 4.685037 0.087347 2.511357 -1.362292 0.215422 -2.788116 13.864659 23.918650 35.913557 0.000000 0.000000 0.000000 -3.003462 0.010685 1.039938 2.110696 -0.231211 -0.780232 -9.465495 -21.932597 29.423429 0.000000 0.000000 0.000000 6.249549 -0.141093 0.866004 -6.319418 2.024177 -26.684489 -1.431115 4.280362 30.199688 6.564997 -3.789395 -12.687081 0.000000 0.000000 0.000000 -6.464820 -0.976732 -0.067629 -53.109720 -2.533940 -8.003838 -15.593905 -29.707672 5.599617 0.000000 0.000000 0.000000 13.655916 -11.977329 -6.181235 54.533716 -1.150673 -8.370784 20.720218 32.142844 7.866748 0.000000 0.000000 0.000000 
-0.001072 0.956441 0.004046 -0.585361 -1.810270 0.601543 4.624868 0.091200 2.575827 -1.224116 0.206429 -2.937946 13.829789 23.899931 35.827318 0.000000 0.000000 0.000000 -2.919779 -0.015260 1.344040 1.905739 -0.224334 -1.307820 -9.317311 -21.735613 29.480805 0.000000 0.000000 0.000000 6.206134 -0.161167 1.077490 -6.317287 2.024333 -26.683018 -1.440778 4.171065 30.065858 6.631468 -3.843871 -12.709909 0.000000 0.000000 0.000000 -6.669315 -0.932476 -0.097859 -53.144271 -2.998709 -7.797733 -14.864088 -29.347573 5.331818 0.000000 0.000000 0.000000 13.776616 -12.350838 -6.405787 54.138043 -1.313135 -8.373254 21.610699 33.035919 8.386589 0.000000 0.000000 0.000000 
-0.001059 0.956037 0.004206 -0.667409 -1.580874 0.519096 4.717463 0.085509 2.563077 -1.187096 0.199294 -2.794665 13.761521 23.873137 35.574152 0.000000 0.000000 0.000000 -2.801466 -0.040668 1.591401 1.864584 -0.229931 -1.667592 -9.585760 -22.020030 30.014119 0.000000 0.000000 0.000000 6.139534 -0.164529 1.135574 -6.115008 1.991491 -26.403312 -1.535727 4.179006 29.799185 6.619520 -3.856097 -12.415682 0.000000 0.000000 0.000000 -6.719859 -1.061011 -0.066742 -53.167328 -3.382834 -7.620905 -14.062011 -29.050325 5.042538 0.000000 0.000000 0.000000 13.559030 -12.300886 -6.327664 54.192225 -1.820058 -8.555985 22.472486 34.173864 9.014660 0.000000 0.000000 0.000000 
-0.001134 0.955960 0.004286 -0.596403 -1.493849 0.368336 4.634137 0.082716 2.450218 -1.152414 0.184758 -2.325267 13.731122 23.855869 35.500526 0.000000 0.000000 0.000000 -2.791712 -0.072714 1.997514 1.792558 -0.229898 -1.914997 -9.573685 -22.007198 29.510139 0.000000 0.000000 0.000000 5.988012 -0.193453 1.504070 -6.134087 1.994151 -26.506608 -1.454494 4.187885 29.897823 6.628373 -3.826277 -12.608773 0.000000 0.000000 0.000000 -6.878401 -1.207294 -0.021608 -53.043330 -3.827038 -7.431535 -13.373223 -29.010405 4.847885 0.000000 0.000000 0.000000 13.653672 -12.481980 -6.424294 54.299010 -2.310948 -8.788155 23.765329 34.997240 9.718793 0.000000 0.000000 0.000000 
-0.001328 0.955996 0.004312 -0.602827 -1.279497 0.113879 4.773157 0.073119 2.343950 -1.318044 0.185808 -1.707969 13.614687 23.774305 35.362039 0.000000 0.000000 0.000000 -2.819180 -0.107052 2.431146 1.730733 -0.227755 -2.000580 -9.134319 -21.444973 29.244762 0.000000 0.000000 0.000000 5.884931 -0.234209 2.018973 -6.074193 1.988077 -26.457999 -1.681766 4.250549 30.079587 6.725109 -3.829469 -12.911415 0.000000 0.000000 0.000000 -6.967183 -1.330876 0.007785 -52.852753 -4.455236 -7.175023 -12.620405 -29.120896 4.654029 0.000000 0.000000 0.000000 13.918473 -12.436301 -6.405652 54.713007 -2.603581 -8.992709 24.805614 35.904789 10.417658 0.000000 0.000000 0.000000 
-0.001653 0.956145 0.004156 -0.585570 -1.088180 0.012759 4.855051 0.057171 2.097054 -1.422517 0.183861 -1.158415 13.501831 23.688864 35.303807 0.000000 0.000000 0.000000 -2.800426 -0.127562 2.664967 1.747089 -0.231573 -2.072686 -9.110497 -21.393366 28.971847 0.000000 0.000000 0.000000 5.671880 -0.255900 2.333842 -6.106899 2.011482 -26.024486 -1.702680 4.152304 29.964868 6.576625 -3.703594 -12.966793 0.000000 0.000000 0.000000 -6.895706 -1.509872 0.082871 -52.436831 -4.743663 -6.996879 -12.158428 -29.582858 4.597435 0.000000 0.000000 0.000000 14.021836 -12.428520 -6.415858 54.892159 -2.982653 -9.170544 25.863485 36.752439 11.084945 0.000000 0.000000 0.000000 
-0.002030 0.956272 0.003894 -0.595651 -0.991349 -0.111564 4.978527 0.042494 1.861716 -1.556637 0.185386 -0.566740 13.443080 23.643068 35.284020 0.000000 0.000000 0.000000 -2.738167 -0.141818 2.791977 1.747331 -0.230135 -1.992554 -9.140341 -21.421845 28.793230 0.000000 0.000000 0.000000 5.433340 -0.284728 2.759333 -6.164983 2.025252 -26.036615 -1.821766 4.243620 30.298523 6.427690 -3.546411 -13.130471 0.000000 0.000000 0.000000 -6.639439 -1.854068 0.233626 -52.126774 -5.027995 -6.884411 -11.768023 -30.265152 4.590260 0.000000 0.000000 0.000000 14.131086 -12.325896 -6.347306 55.259649 -2.896181 -9.221943 26.273527 37.382626 11.501206 0.000000 0.000000 0.000000 
-0.002282 0.956295 0.003534 -0.644066 -0.975961 -0.224667 5.089506 0.026361 1.558733 -1.624199 0.178926 0.137362 13.453456 23.655222 35.280136 0.000000 0.000000 0.000000 -2.770362 -0.132463 2.675441 1.916238 -0.237749 -1.676264 -9.214082 -21.508361 29.015072 0.000000 0.000000 0.000000 5.309359 -0.321667 3.249283 -6.366187 2.080533 -25.780637 -1.836745 4.239343 30.363218 6.112831 -3.290584 -13.204546 0.000000 0.000000 0.000000 -6.551330 -1.903076 0.259794 -51.680515 -5.126032 -6.797986 -11.613772 -31.278366 4.707624 0.000000 0.000000 0.000000 14.253556 -12.038612 -6.209276 55.288319 -2.894713 -9.241971 26.654027 37.802990 11.793456 0.000000 0.000000 0.000000 
-0.002371 0.956664 0.003158 -0.598236 -0.938345 -0.387957 5.082685 0.012487 1.234166 -1.683249 0.170089 0.957011 13.404942 23.605524 35.372919 0.000000 0.000000 0.000000 -2.703914 -0.126040 2.530444 1.707834 -0.211948 -1.370975 -9.478689 -21.813780 29.825039 0.000000 0.000000 0.000000 4.974561 -0.358103 3.853991 -6.761787 2.177101 -25.684444 -2.049227 4.295408 30.697247 5.726027 -2.972311 -13.295270 0.000000 0.000000 0.000000 -6.355605 -2.671201 0.586151 -50.988917 -4.641397 -6.949719 -10.770492 -33.083878 4.734374 0.000000 0.000000 0.000000 14.476070 -11.409098 -5.887694 55.245531 -2.610348 -9.163824 26.436218 38.208522 11.867437 0.000000 0.000000 0.000000 
-0.002288 0.956564 0.002626 -0.631006 -1.214267 -0.605066 5.201499 0.010565 1.108427 -1.876785 0.183683 1.617289 13.570286 23.733953 35.492685 0.000000 0.000000 0.000000 -2.825417 -0.108299 2.378811 1.895576 -0.214654 -0.772078 -9.240036 -21.565198 29.566182 0.000000 0.000000 0.000000 4.652841 -0.390192 4.452574 -7.243112 2.312584 -25.037326 -2.030574 4.431220 30.524921 5.249420 -2.521502 -13.826638 0.000000 0.000000 0.000000 -5.927720 -2.909466 0.709123 -50.376739 -4.264513 -7.015732 -10.681465 -34.053768 4.844556 0.000000 0.000000 0.000000 14.422093 -10.796016 -5.563446 55.041061 -2.267685 -8.983285 26.932985 38.287592 12.050175 0.000000 0.000000 0.000000 
-0.002275 0.957113 0.001735 -0.700527 -1.285444 -0.843852 5.452300 0.004513 0.981962 -2.184781 0.215015 2.209722 13.541879 23.690737 35.648040 0.000000 0.000000 0.000000 -2.742897 -0.133222 2.648420 1.905382 -0.217290 -0.847972 -9.144848 -21.459003 29.506649 0.000000 0.000000 0.000000 4.183432 -0.459577 5.670817 -7.793963 2.442696 -25.066432 -2.162089 4.722669 30.652800 4.643575 -2.023601 -13.767068 0.000000 0.000000 0.000000 -5.345846 -3.462266 0.943953 -49.728449 -3.912212 -7.101080 -10.290659 -35.156677 4.848931 0.000000 0.000000 0.000000 14.967267 -10.221594 -5.275167 55.131837 -1.329131 -8.637023 26.034358 38.277971 11.755951 0.000000 0.000000 0.000000 
